<svg width="210" height="55" viewBox="0 0 210 55" fill="none" xmlns="http://www.w3.org/2000/svg">
<path d="M79.0858 46.6667V24.8182H87.7022V46.6667H79.0858ZM78.6023 19.3671C78.6023 16.7734 80.6245 14.6633 83.394 14.6633C86.1196 14.6633 88.1857 16.7734 88.1857 19.3671C88.1857 21.9168 86.1196 24.0709 83.394 24.0709C80.6245 24.0709 78.6023 21.9168 78.6023 19.3671ZM90.8055 46.6667V15.8942H103.51C113.138 15.8942 119.468 22.6642 119.468 31.2805C119.468 39.9407 113.182 46.6667 103.51 46.6667H90.8055ZM99.9494 39.1934H102.719C107.335 39.1934 109.972 35.5886 109.972 31.2805C109.972 26.9723 107.335 23.3675 102.719 23.3675H99.9494V39.1934ZM136.008 14.971C146.075 14.971 152.317 22.2245 152.317 31.0167V34.006H128.842C129.457 37.6548 132.051 39.8528 136.008 39.8528C139.568 39.8528 141.327 38.2263 142.162 36.5118H152.009C150.866 41.875 145.503 47.6778 135.92 47.6778C125.325 47.6778 119.346 40.1166 119.346 31.3244C119.346 22.4444 125.369 14.971 136.008 14.971ZM128.93 28.0274H142.734C141.986 24.7743 139.612 22.7081 135.876 22.7081C132.227 22.7081 129.721 24.6864 128.93 28.0274ZM149.636 46.6667L160.143 15.8942H170.034L180.497 46.6667H171.001L170.034 43.1059H160.099L159.132 46.6667H149.636ZM161.857 36.4678H168.276L165.067 24.5105L161.857 36.4678ZM181.372 46.6667V15.8942H190.516V38.7978H200.979V46.6667H181.372Z" fill="#1D1C1C"/>
<g clip-path="url(#clip0_672_1687)">
<path d="M0.269531 4.08398V50.0232C0.269531 52.2223 2.0741 54.0215 4.27975 54.0215H31.8093C52.6218 54.0215 61.6447 42.4068 61.6447 26.9936C61.6447 11.5803 52.6216 0.0856934 31.8091 0.0856934H4.27975C2.0741 0.0856934 0.269531 1.8849 0.269531 4.08398Z" fill="white"/>
<path d="M31.8057 50.3629H7.86525C5.73977 50.3629 4.01562 48.6437 4.01562 46.5248V7.60209C4.01562 5.48293 5.74004 3.76392 7.86525 3.76392H31.8057C54.5229 3.76392 57.9115 18.3373 57.9115 27.0134C57.9115 42.0666 48.6282 50.3629 31.8057 50.3629ZM5.29875 7.60209V46.5245C5.29875 47.9437 6.44152 49.0834 7.86525 49.0834H31.8057C47.8061 49.0834 56.6284 41.2469 56.6284 27.0134C56.6284 7.90214 41.069 5.04322 31.8057 5.04322H7.86525C6.44178 5.04322 5.29875 6.18259 5.29875 7.60209Z" fill="black"/>
<path d="M18.6934 11.3604V45.305H33.5108C46.9646 45.305 52.7994 37.7285 52.7994 27.0131C52.7994 16.2978 46.9646 8.80151 33.5108 8.80151H21.2599C19.8364 8.80151 18.6934 9.96107 18.6934 11.3604Z" fill="#CC0066"/>
<path d="M23.906 22.4352C24.4272 22.4352 24.9085 22.5151 25.3697 22.675C25.831 22.8348 26.2118 23.0948 26.5527 23.4147C26.8736 23.7546 27.1341 24.1744 27.3346 24.6542C27.5152 25.1539 27.6153 25.7338 27.6153 26.4133C27.6153 27.0131 27.5351 27.5527 27.3948 28.0527C27.2345 28.5524 27.014 28.9924 26.713 29.3522C26.4121 29.7119 26.0312 29.9918 25.5703 30.2117C25.109 30.4116 24.5678 30.5316 23.9462 30.5316H20.4375V22.4153H23.9063V22.4352H23.906ZM23.7857 29.0524C24.0464 29.0524 24.2869 29.0123 24.5476 28.9324C24.7881 28.8524 25.0089 28.7125 25.1892 28.5126C25.3694 28.3126 25.53 28.0728 25.6504 27.7529C25.7708 27.4329 25.831 27.0731 25.831 26.6135C25.831 26.2136 25.7908 25.8339 25.7106 25.514C25.6304 25.194 25.4901 24.8942 25.3095 24.6744C25.129 24.4545 24.8885 24.2546 24.5878 24.1346C24.2871 24.0145 23.926 23.9545 23.485 23.9545H22.2019V29.0723H23.7859V29.0524H23.7857ZM34.8536 22.4352V23.9346H30.5627V25.6738H34.5127V27.0532H30.5627V29.0325H34.9537V30.5319H28.7781V22.4155H34.8533V22.4355L34.8536 22.4352ZM44.0368 30.5515H42.172L41.5504 28.7523H38.5027L37.8611 30.5515H36.0565L39.1242 22.4352H40.989L44.0368 30.5515ZM41.0894 27.413L40.0667 24.4343H40.0468L38.9842 27.413H41.0894ZM46.9441 22.4352V29.0521H50.9142V30.5515H45.1596V22.4352H46.9441Z" fill="white"/>
<path d="M14.8304 45.3054C11.6825 45.3054 9.15593 42.7665 9.15593 39.6479V35.2298C9.15593 33.6706 10.4191 32.391 12.0031 32.391C13.5872 32.391 14.8503 33.6504 14.8503 35.2298V45.3052H14.8304V45.3054ZM12.0034 30.2323C9.93011 30.2323 8.25391 28.5611 8.25391 26.494C8.25391 24.4268 9.93011 22.7556 12.0034 22.7556C14.0767 22.7556 15.7529 24.4268 15.7529 26.494C15.7529 28.5611 14.0767 30.2323 12.0034 30.2323Z" fill="black"/>
</g>
<defs>
<clipPath id="clip0_672_1687">
<rect width="61.3749" height="53.9355" fill="white" transform="translate(0.269531 0.0856934)"/>
</clipPath>
</defs>
</svg>
