<svg width="151" height="34" viewBox="0 0 151 34" fill="none" xmlns="http://www.w3.org/2000/svg">
<path d="M115.211 17.1836C115.211 8.44847 121.711 0.48291 132.936 0.48291C144.207 0.48291 150.707 8.44847 150.707 17.1836C150.707 25.9188 144.207 33.8843 132.936 33.8843C121.713 33.8862 115.211 25.9188 115.211 17.1836ZM140.841 17.1836C140.841 12.9735 137.941 9.08223 132.938 9.08223C127.979 9.08223 125.034 12.9754 125.034 17.1836C125.034 21.3937 127.981 25.285 132.938 25.285C137.941 25.285 140.841 21.3937 140.841 17.1836Z" fill="#1D1C1C"/>
<path d="M108.31 23.3855C112.052 21.3484 114.295 17.4571 114.295 13.1565C114.295 6.77537 109.477 1.34302 101.995 1.34302L86.2812 1.34302L86.2813 33.0261L96.0091 33.0261L96.0091 24.9247L97.8334 24.9247L103.398 33.0261L114.857 33.0261L108.31 23.3855ZM100.032 17.6363L96.0091 17.6363L96.0091 8.67481L100.079 8.67481C102.698 8.67481 104.382 10.7119 104.382 13.1565C104.382 15.5992 102.652 17.6363 100.032 17.6363Z" fill="#1D1C1C"/>
<path d="M41.8755 1.30933L36.04 20.1924L30.3448 1.30933L22.5972 1.30933L16.8553 20.1924L11.0665 1.30933L0.796875 1.30933L12.5595 32.932L21.0088 32.932L26.4701 15.7201L31.8865 32.932L40.3825 32.932L52.1452 1.30933L41.8755 1.30933Z" fill="#1D1C1C"/>
<path d="M66.8636 25.2078C66.8558 25.2078 66.848 25.2078 66.8402 25.2078C63.2013 25.2078 60.6499 23.1065 59.5545 20.3243L84.1538 20.3243L84.2766 20.3243C84.4754 19.2775 84.5787 18.2061 84.5787 17.1215C84.5787 8.40901 78.098 0.464198 66.8636 0.452881L66.8636 9.03709C70.5239 9.04652 73.0499 11.144 74.1336 13.9206L49.4466 13.9206C49.2498 14.9674 49.1484 16.0388 49.1484 17.1234C49.1484 25.8415 55.6369 33.7939 66.8402 33.7939C66.848 33.7939 66.8558 33.7939 66.8636 33.7939V25.2078Z" fill="#1D1C1C"/>
<path d="M66.8398 33.7901C67.2199 33.7901 67.5941 33.7788 67.9644 33.7618C70.2409 33.6505 72.307 33.2073 74.1488 32.4924C75.9907 31.7775 77.6084 30.7948 78.9845 29.6064C80.3605 28.4181 81.4968 27.0261 82.3778 25.4926C83.1789 24.0986 83.7636 22.5897 84.13 21.0146L73.8292 21.0146C73.6187 21.4353 73.3731 21.837 73.0924 22.2124C72.7085 22.7255 72.2582 23.1914 71.7476 23.5931C71.2369 23.9949 70.6639 24.3344 70.0324 24.5966C69.4009 24.8588 68.7129 25.0436 67.9683 25.1361C67.6058 25.1813 67.2316 25.2077 66.8437 25.2077C64.5263 25.2077 62.6493 24.3533 61.3103 23.0159L54.6133 29.497C57.5895 32.1302 61.7215 33.7901 66.8398 33.7901Z" fill="url(#paint0_linear_665_3744)"/>
<path d="M66.8391 0.451172C57.3374 0.451172 51.2271 6.17023 49.5898 13.2285L59.8615 13.2285C61.0894 10.7971 63.5082 9.03538 66.8391 9.03538C69.4938 9.03538 71.5539 10.1332 72.9007 11.7931L79.6582 5.25352C76.641 2.32609 72.3004 0.451172 66.8391 0.451172Z" fill="url(#paint1_linear_665_3744)"/>
<defs>
<linearGradient id="paint0_linear_665_3744" x1="78.9457" y1="15.1503" x2="64.3853" y2="33.7886" gradientUnits="userSpaceOnUse">
<stop offset="0.0243" stop-color="#1D1C1C" stop-opacity="0"/>
<stop offset="0.676" stop-color="#1D1C1C"/>
</linearGradient>
<linearGradient id="paint1_linear_665_3744" x1="52.424" y1="19.2224" x2="67.489" y2="3.65534" gradientUnits="userSpaceOnUse">
<stop offset="0.0243" stop-color="#1D1C1C" stop-opacity="0"/>
<stop offset="0.676" stop-color="#1D1C1C"/>
</linearGradient>
</defs>
</svg>
