<svg width="447" height="302" viewBox="0 0 447 302" fill="none" xmlns="http://www.w3.org/2000/svg">
<path d="M257.092 214.383C245.209 228.918 233.887 243.817 223.17 259.229C227.704 259.777 229.976 260.049 234.514 260.597C244.81 245.155 255.737 230.229 267.239 215.668C263.179 215.155 261.148 214.896 257.092 214.383Z" fill="url(#paint0_linear_7_2)" stroke="#1D1C1C" stroke-width="1.28947" stroke-linejoin="round"/>
<path d="M264.989 198.936C252.535 213.121 240.595 227.673 229.199 242.725C233.702 243.282 235.951 243.558 240.459 244.111C251.444 229.032 262.989 214.449 275.065 200.23C271.036 199.712 269.019 199.454 264.989 198.936Z" fill="url(#paint1_linear_7_2)" stroke="#1D1C1C" stroke-width="1.28947" stroke-linejoin="round"/>
<path d="M257.091 214.383C318.621 222.184 380.156 229.909 441.708 237.547C443.107 243.054 444.598 248.487 446.203 253.937C384.199 246.391 322.213 238.744 260.235 231.01C259.012 225.516 257.959 219.948 257.091 214.383Z" fill="white" stroke="#1D1C1C" stroke-width="1.28947" stroke-linejoin="round"/>
<path d="M264.99 198.936C319.325 205.912 373.663 212.836 428.011 219.697C428.984 225.266 430.208 230.769 431.462 236.276C376.711 229.475 321.969 222.604 267.235 215.672C266.31 210.13 265.556 204.527 264.986 198.936H264.99Z" fill="white" stroke="#1D1C1C" stroke-width="1.28947" stroke-linejoin="round"/>
<path d="M282.243 96.6006C327.663 102.59 373.082 108.593 418.502 114.595C412.451 149.238 412.231 183.701 417.844 218.413C370.245 212.393 322.651 206.329 275.065 200.226C271.636 165.211 274.017 130.809 282.243 96.5963V96.6006Z" fill="white" stroke="#1D1C1C" stroke-width="1.28947" stroke-linejoin="round"/>
<path d="M418.155 282.392C422.737 282.923 425.031 283.194 429.617 283.725C432.63 268.019 436.699 252.739 441.702 237.547C437.602 237.042 435.555 236.784 431.463 236.275C426.074 251.419 421.602 266.682 418.155 282.392Z" fill="url(#paint2_linear_7_2)" stroke="#1D1C1C" stroke-width="1.28947" stroke-linejoin="round"/>
<path d="M429.617 283.725C432.103 289.517 434.774 295.23 437.629 300.847C439.347 284.944 442.255 269.431 446.201 253.932C444.596 248.486 443.105 243.049 441.702 237.547C436.699 252.739 432.63 268.02 429.617 283.725Z" fill="#1D1C1C" stroke="#1D1C1C" stroke-width="1.28947" stroke-linejoin="round"/>
<path d="M400.038 263.513C404.585 264.061 406.857 264.333 411.4 264.877C416.061 249.456 421.625 234.483 428.01 219.698C423.945 219.181 421.91 218.922 417.85 218.413C411.088 233.163 405.129 248.106 400.038 263.513Z" fill="url(#paint3_linear_7_2)" stroke="#1D1C1C" stroke-width="1.28947" stroke-linejoin="round"/>
<path d="M411.399 264.877C413.465 270.787 415.719 276.623 418.157 282.389C421.603 266.683 426.076 251.416 431.465 236.272C430.207 230.76 428.983 225.258 428.01 219.694C421.625 234.478 416.061 249.447 411.399 264.872V264.877Z" fill="#1D1C1C" stroke="#1D1C1C" stroke-width="1.28947" stroke-linejoin="round"/>
<path d="M384.545 152.71C382.966 190.633 388.118 227.476 400.037 263.518C405.123 248.11 411.082 233.163 417.844 218.418C412.231 183.705 412.451 149.242 418.502 114.599C406.741 126.924 395.424 139.6 384.545 152.715V152.71Z" fill="#1D1C1C" stroke="#1D1C1C" stroke-width="1.28947" stroke-linejoin="round"/>
<path d="M220.556 131.085C279.293 138.846 338.03 146.593 396.771 154.315C399.279 154.644 401.287 153.648 402.546 152.026C412.838 139.026 423.581 126.455 434.771 114.222C434.789 114.209 434.793 114.2 434.811 114.182C434.969 114.011 435.047 113.924 435.201 113.753C435.21 113.744 435.214 113.74 435.223 113.731C437.262 111.315 437.766 107.571 435.381 105.014C415.618 83.7008 396.916 61.5805 379.534 38.2808C377.53 35.558 373.259 35.0143 368.935 36.926C335.907 51.6012 303.266 67.0657 270.996 83.35C270.615 83.543 270.255 83.7578 269.931 83.9902C252.303 95.0744 234.926 106.509 217.78 118.322C212.983 122.184 214.272 129.774 220.556 131.081V131.085Z" fill="url(#paint4_linear_7_2)" stroke="#1D1C1C" stroke-width="1.28947" stroke-linejoin="round"/>
<path d="M223.168 259.229C291.969 267.534 360.782 275.702 429.618 283.726C432.104 289.518 434.775 295.231 437.629 300.852C368.254 293.013 298.897 285.002 229.557 276.847C227.242 271.046 225.111 265.171 223.168 259.234V259.229Z" fill="url(#paint5_linear_7_2)" stroke="#1D1C1C" stroke-width="1.28947" stroke-linejoin="round"/>
<path d="M229.197 242.722C289.92 250.202 350.652 257.594 411.397 264.877C413.463 270.783 415.716 276.623 418.155 282.389C356.927 275.238 295.713 267.973 234.507 260.598C232.547 254.696 230.775 248.733 229.197 242.722Z" fill="url(#paint6_linear_7_2)" stroke="#1D1C1C" stroke-width="1.28947" stroke-linejoin="round"/>
<path d="M232.658 132.686C283.287 139.373 333.916 146.051 384.545 152.706C382.966 190.629 388.118 227.473 400.037 263.514C346.834 257.121 293.644 250.649 240.458 244.108C231.083 207.395 228.492 170.346 232.658 132.686Z" fill="url(#paint7_linear_7_2)" stroke="#1D1C1C" stroke-width="1.28947" stroke-linejoin="round"/>
<path d="M389.047 262.193C378.453 229.62 373.34 196.407 373.656 162.163C329.754 156.411 285.856 150.636 241.957 144.853C239.625 178.96 242.742 212.362 251.354 245.448C297.248 251.087 343.145 256.669 389.047 262.193Z" fill="#1D1C1C" stroke="#1D1C1C" stroke-width="1.28947" stroke-linejoin="round"/>
<path d="M331.556 67.0529C353.468 93.4306 376.941 118.313 401.664 142.069C405.851 146.668 403.764 154.793 396.766 154.315C338.024 146.594 279.287 138.846 220.551 131.09C213.877 129.656 212.986 121.391 218.498 117.879C251.802 99.5383 285.558 82.092 319.77 65.5183C324.264 63.3523 329.009 63.9661 331.552 67.0573L331.556 67.0529Z" fill="url(#paint8_linear_7_2)" stroke="#1D1C1C" stroke-width="1.28947" stroke-linejoin="round"/>
<path d="M331.556 67.0529C353.468 93.4306 376.941 118.313 401.664 142.069C405.851 146.668 403.764 154.793 396.766 154.315C338.024 146.594 279.287 138.846 220.551 131.09C213.877 129.656 212.986 121.391 218.498 117.879C251.802 99.5383 285.558 82.092 319.77 65.5183C324.264 63.3523 329.009 63.9661 331.552 67.0573L331.556 67.0529Z" fill="url(#paint9_radial_7_2)" stroke="#1D1C1C" stroke-width="1.28947" stroke-linejoin="round"/>
<path d="M386.395 142.034C364.071 120.589 342.773 98.2317 322.686 74.6733C292.464 89.6949 262.611 105.392 233.114 121.79C284.207 128.542 335.301 135.295 386.395 142.034Z" stroke="#1D1C1C" stroke-width="1.28947" stroke-linejoin="round"/>
<path d="M348.675 166.149C353.989 166.846 359.304 167.539 364.619 168.236C367.842 168.657 370.455 171.691 370.53 175.01C370.591 177.659 368.578 179.535 365.982 179.198C365.575 179.145 365.18 179.027 364.807 178.851C366.026 204.536 370.214 229.423 377.462 254.095C371.946 253.424 366.43 252.754 360.913 252.078C353.845 227.358 349.837 202.449 348.802 176.764C348.434 176.848 348.035 176.865 347.622 176.812C345.035 176.475 342.878 174.05 342.847 171.402C342.812 168.087 345.456 165.733 348.675 166.153V166.149ZM357.629 258.405C366.811 259.515 375.989 260.624 385.171 261.729C384.583 259.988 384.298 259.116 383.741 257.366C382.347 256.217 381.567 255.573 380.185 254.42C372.858 253.53 365.526 252.635 358.199 251.745C357.436 252.64 357.011 253.139 356.256 254.034C356.791 255.788 357.068 256.66 357.633 258.41L357.629 258.405ZM369.946 161.677C361.163 160.524 352.384 159.375 343.601 158.222C343.54 160.037 343.514 160.945 343.479 162.755C344.483 163.948 345.053 164.615 346.07 165.807C353.126 166.732 360.181 167.653 367.236 168.574C368.262 167.649 368.841 167.131 369.876 166.21C369.889 164.395 369.902 163.488 369.942 161.672L369.946 161.677ZM309.942 167.096C309.929 169.744 312.056 172.169 314.639 172.507C315.051 172.559 315.45 172.542 315.818 172.459C316.48 198.143 320.115 223.096 326.811 247.904C332.319 248.579 337.822 249.255 343.329 249.926C336.454 225.161 332.639 200.231 331.793 174.546C332.165 174.725 332.556 174.839 332.963 174.892C335.551 175.23 337.594 173.353 337.572 170.7C337.546 167.386 334.976 164.347 331.758 163.926C326.452 163.233 321.15 162.536 315.844 161.843C312.63 161.423 309.951 163.773 309.938 167.092L309.942 167.096ZM323.426 254.262C332.591 255.376 341.751 256.485 350.916 257.594C350.354 255.845 350.082 254.972 349.552 253.214C348.175 252.061 347.403 251.412 346.039 250.259C338.725 249.364 331.411 248.47 324.093 247.571C323.316 248.47 322.882 248.97 322.115 249.864C322.624 251.622 322.887 252.504 323.426 254.253V254.262ZM337.182 157.38C328.416 156.231 319.651 155.078 310.889 153.925C310.802 155.736 310.762 156.643 310.701 158.459C311.687 159.651 312.249 160.318 313.248 161.51C320.291 162.435 327.333 163.356 334.375 164.277C335.415 163.352 336.002 162.834 337.05 161.914C337.09 160.098 337.116 159.191 337.186 157.38H337.182ZM277.099 162.799C277.05 165.448 279.138 167.872 281.712 168.21C282.124 168.262 282.523 168.245 282.891 168.162C283.176 193.842 286.439 218.834 292.766 243.726C298.261 244.401 303.759 245.081 309.254 245.756C302.746 220.904 299.304 195.934 298.835 170.253C299.203 170.433 299.594 170.547 300.001 170.599C302.584 170.937 304.654 169.06 304.671 166.408C304.693 163.093 302.168 160.059 298.958 159.638C293.665 158.945 288.368 158.248 283.075 157.555C279.866 157.134 277.156 159.485 277.094 162.799H277.099ZM289.293 250.101C298.44 251.219 307.587 252.333 316.735 253.446C316.2 251.692 315.941 250.816 315.437 249.053C314.077 247.895 313.319 247.247 311.968 246.089C304.667 245.19 297.366 244.296 290.065 243.397C289.276 244.296 288.833 244.8 288.052 245.699C288.535 247.466 288.785 248.343 289.298 250.105L289.293 250.101ZM304.483 153.083C295.735 151.934 286.987 150.781 278.239 149.632C278.125 151.443 278.072 152.351 277.984 154.162C278.954 155.354 279.502 156.021 280.488 157.213C287.517 158.134 294.547 159.059 301.571 159.98C302.628 159.055 303.22 158.537 304.281 157.617C304.347 155.801 304.386 154.898 304.483 153.083ZM244.321 158.498C244.233 161.146 246.285 163.571 248.855 163.909C249.267 163.961 249.666 163.944 250.035 163.86C249.942 189.532 252.837 214.559 258.791 239.53C264.277 240.209 269.763 240.884 275.248 241.564C269.114 216.633 266.04 191.624 265.952 165.947C266.32 166.127 266.706 166.241 267.114 166.294C269.692 166.631 271.788 164.755 271.845 162.102C271.916 158.787 269.438 155.753 266.233 155.332C260.949 154.64 255.665 153.942 250.381 153.25C247.18 152.829 244.431 155.179 244.321 158.494V158.498ZM255.218 245.927C264.347 247.049 273.477 248.167 282.606 249.285C282.098 247.527 281.852 246.646 281.374 244.879C280.032 243.717 279.282 243.068 277.949 241.902C270.662 241.003 263.374 240.1 256.086 239.201C255.283 240.104 254.836 240.608 254.038 241.511C254.494 243.283 254.731 244.164 255.218 245.931V245.927ZM271.845 148.79C263.115 147.642 254.384 146.493 245.654 145.34C245.514 147.151 245.448 148.054 245.334 149.869C246.285 151.062 246.825 151.728 247.789 152.921C254.805 153.842 261.817 154.767 268.833 155.687C269.903 154.762 270.504 154.245 271.578 153.324C271.67 151.513 271.723 150.606 271.845 148.795V148.79ZM277.099 162.799C277.05 165.448 279.138 167.872 281.712 168.21C282.124 168.262 282.523 168.245 282.891 168.162C283.176 193.842 286.439 218.834 292.766 243.726C298.261 244.401 303.759 245.081 309.254 245.756C302.746 220.904 299.304 195.934 298.835 170.253C299.203 170.433 299.594 170.547 300.001 170.599C302.584 170.937 304.654 169.06 304.671 166.408C304.693 163.093 302.168 160.059 298.958 159.638C293.665 158.945 288.368 158.248 283.075 157.555C279.866 157.134 277.156 159.485 277.094 162.799H277.099Z" fill="url(#paint10_linear_7_2)" stroke="#1D1C1C" stroke-width="1.28947" stroke-linejoin="round"/>
<path d="M348.674 166.154C345.452 165.733 342.812 168.079 342.847 171.398C342.873 174.05 345.035 176.475 347.622 176.813C349.692 177.08 351.319 175.581 351.279 173.458C351.248 171.762 349.902 170.209 348.249 169.995C346.929 169.824 345.859 170.784 345.877 172.143C345.89 173.23 346.767 174.221 347.828 174.362C348.674 174.471 349.345 173.857 349.332 172.989" stroke="#1D1C1C" stroke-width="1.28947" stroke-linejoin="round"/>
<path d="M364.614 168.236C367.837 168.657 370.45 171.687 370.529 175.006C370.591 177.659 368.578 179.535 365.987 179.198C363.912 178.93 362.167 176.988 362.123 174.866C362.084 173.169 363.413 171.967 365.066 172.182C366.39 172.353 367.477 173.594 367.508 174.953C367.534 176.041 366.701 176.808 365.64 176.672C364.794 176.562 364.084 175.769 364.066 174.896" stroke="#1D1C1C" stroke-width="1.28947" stroke-linejoin="round"/>
<path d="M315.844 161.853C312.63 161.432 309.951 163.778 309.938 167.092C309.924 169.745 312.051 172.17 314.634 172.507C316.699 172.779 318.348 171.275 318.339 169.153C318.335 167.456 317.011 165.904 315.362 165.689C314.042 165.518 312.963 166.479 312.959 167.838C312.959 168.925 313.818 169.916 314.875 170.056C315.721 170.166 316.401 169.552 316.401 168.684" stroke="#1D1C1C" stroke-width="1.28947" stroke-linejoin="round"/>
<path d="M331.759 163.94C334.977 164.361 337.547 167.39 337.573 170.71C337.595 173.362 335.556 175.239 332.969 174.901C330.899 174.629 329.185 172.691 329.167 170.569C329.154 168.872 330.496 167.671 332.149 167.886C333.469 168.057 334.539 169.298 334.547 170.657C334.556 171.744 333.71 172.512 332.653 172.376C331.807 172.266 331.11 171.472 331.105 170.6" stroke="#1D1C1C" stroke-width="1.28947" stroke-linejoin="round"/>
<path d="M283.079 157.555C279.87 157.134 277.16 159.48 277.098 162.795C277.05 165.447 279.137 167.872 281.716 168.21C283.781 168.481 285.447 166.978 285.474 164.855C285.495 163.159 284.193 161.606 282.544 161.392C281.229 161.221 280.133 162.181 280.111 163.54C280.093 164.627 280.939 165.618 281.996 165.759C282.843 165.868 283.531 165.254 283.54 164.386" stroke="#1D1C1C" stroke-width="1.28947" stroke-linejoin="round"/>
<path d="M298.962 159.638C302.172 160.059 304.698 163.089 304.676 166.403C304.658 169.056 302.589 170.933 300.01 170.595C297.945 170.323 296.257 168.385 296.274 166.263C296.287 164.566 297.647 163.365 299.295 163.58C300.615 163.751 301.663 164.991 301.655 166.351C301.646 167.438 300.791 168.205 299.734 168.069C298.888 167.96 298.204 167.166 298.212 166.294" stroke="#1D1C1C" stroke-width="1.28947" stroke-linejoin="round"/>
<path d="M250.377 153.259C247.176 152.838 244.426 155.184 244.317 158.498C244.229 161.151 246.281 163.576 248.855 163.913C250.916 164.185 252.605 162.681 252.662 160.559C252.705 158.862 251.429 157.31 249.785 157.095C248.469 156.924 247.36 157.884 247.321 159.239C247.286 160.327 248.119 161.318 249.171 161.458C250.013 161.568 250.71 160.954 250.736 160.086" stroke="#1D1C1C" stroke-width="1.28947" stroke-linejoin="round"/>
<path d="M266.229 155.342C269.435 155.762 271.917 158.792 271.847 162.107C271.79 164.76 269.694 166.636 267.12 166.299C265.059 166.027 263.401 164.089 263.445 161.967C263.48 160.27 264.861 159.068 266.506 159.283C267.821 159.454 268.852 160.695 268.825 162.054C268.803 163.142 267.935 163.909 266.883 163.773C266.041 163.664 265.366 162.87 265.388 161.997" stroke="#1D1C1C" stroke-width="1.28947" stroke-linejoin="round"/>
<path d="M277.1 162.799C277.051 165.447 279.139 167.872 281.713 168.21C282.125 168.262 282.524 168.245 282.892 168.161C283.177 193.842 286.44 218.834 292.767 243.725C298.262 244.401 303.76 245.08 309.255 245.755C302.747 220.904 299.305 195.933 298.836 170.253C299.204 170.433 299.595 170.547 300.002 170.599C302.585 170.937 304.655 169.06 304.672 166.407C304.694 163.093 302.169 160.059 298.959 159.638C293.666 158.945 288.369 158.248 283.076 157.555C279.867 157.134 277.157 159.484 277.095 162.799H277.1Z" fill="url(#paint11_radial_7_2)" stroke="#1D1C1C" stroke-width="1.28947" stroke-linejoin="round"/>
<path d="M244.323 158.498C244.235 161.147 246.287 163.571 248.857 163.909C249.269 163.962 249.668 163.944 250.036 163.861C249.944 189.533 252.838 214.56 258.793 239.53C264.279 240.21 269.765 240.885 275.25 241.565C269.116 216.634 266.042 191.624 265.954 165.948C266.322 166.128 266.708 166.242 267.116 166.294C269.694 166.632 271.79 164.755 271.847 162.103C271.918 158.788 269.44 155.754 266.235 155.333C260.951 154.64 255.667 153.943 250.383 153.25C247.182 152.829 244.432 155.179 244.323 158.494V158.498Z" fill="url(#paint12_radial_7_2)" stroke="#1D1C1C" stroke-width="1.28947" stroke-linejoin="round"/>
<path d="M215.868 94.811C264.212 99.1386 259.108 51.2984 231.281 67.5652C230.891 35.3384 187.251 55.6084 215.868 94.811Z" fill="url(#paint13_linear_7_2)" stroke="#1D1C1C" stroke-width="1.28947" stroke-linejoin="round"/>
<path d="M247.983 77.1325C249.152 76.8906 249.72 74.8548 249.25 72.5855C248.78 70.3161 247.452 68.6726 246.283 68.9144C245.114 69.1563 244.546 71.1921 245.016 73.4614C245.486 75.7308 246.814 77.3744 247.983 77.1325Z" fill="white"/>
<path d="M202.479 34.0675C229.163 9.84682 200.467 -11.4341 195.352 11.9466C177.556 -4.054 166.672 29.9721 202.479 34.0675Z" fill="url(#paint14_linear_7_2)" stroke="#1D1C1C" stroke-width="1.28947" stroke-linejoin="round"/>
<path d="M208.975 7.63539C209.432 6.87529 208.605 5.54155 207.129 4.65639C205.654 3.77123 204.088 3.66984 203.632 4.42994C203.176 5.19004 204.002 6.52378 205.478 7.40894C206.954 8.2941 208.519 8.39549 208.975 7.63539Z" fill="white"/>
<path d="M234.022 129.918C230.326 130.409 226.634 130.896 222.937 131.378C222.192 131.282 221.442 131.185 220.696 131.085C214.413 129.778 213.119 122.193 217.916 118.325C221.341 115.967 224.779 113.621 228.221 111.297C231.084 113.235 233.948 115.19 236.798 117.159C241.595 121.026 240.306 128.612 234.022 129.918Z" fill="#1D1C1C" stroke="#1D1C1C" stroke-width="1.28947" stroke-linejoin="round"/>
<path d="M189.912 214.383C201.795 228.918 213.117 243.817 223.834 259.229C219.3 259.777 217.028 260.049 212.49 260.597C202.194 245.155 191.267 230.229 179.765 215.668C183.825 215.155 185.856 214.896 189.912 214.383Z" fill="#1D1C1C" stroke="#1D1C1C" stroke-width="1.28947" stroke-linejoin="round"/>
<path d="M182.014 198.936C194.467 213.121 206.408 227.673 217.804 242.725C213.301 243.282 211.051 243.558 206.543 244.111C195.559 229.032 184.013 214.449 171.937 200.23C175.967 199.712 177.984 199.454 182.014 198.936Z" fill="#1D1C1C" stroke="#1D1C1C" stroke-width="1.28947" stroke-linejoin="round"/>
<path d="M189.911 214.383C128.381 222.184 66.8463 229.909 5.2943 237.547C3.89549 243.054 2.4046 248.487 0.799694 253.937C62.8034 246.391 124.79 238.744 186.767 231.01C187.99 225.516 189.043 219.948 189.911 214.383Z" fill="white" stroke="#1D1C1C" stroke-width="1.28947" stroke-linejoin="round"/>
<path d="M182.014 198.936C127.679 205.912 73.3407 212.836 18.9932 219.697C18.0197 225.266 16.7963 230.769 15.5422 236.276C70.2932 229.475 125.035 222.604 179.769 215.672C180.694 210.13 181.448 204.527 182.018 198.936H182.014Z" fill="white" stroke="#1D1C1C" stroke-width="1.28947" stroke-linejoin="round"/>
<path d="M164.755 96.6006C119.335 102.59 73.9154 108.593 28.4957 114.595C34.547 149.238 34.7662 183.701 29.1534 218.413C76.7524 212.393 124.347 206.329 171.933 200.226C175.362 165.211 172.981 130.809 164.755 96.5963V96.6006Z" fill="white" stroke="#1D1C1C" stroke-width="1.28947" stroke-linejoin="round"/>
<path d="M28.8411 282.392C24.2588 282.923 21.9654 283.194 17.3787 283.725C14.3662 268.019 10.297 252.739 5.29371 237.546C9.39367 237.042 11.4415 236.784 15.5326 236.275C20.9218 251.419 25.3945 266.682 28.8411 282.392Z" fill="#1D1C1C" stroke="#1D1C1C" stroke-width="1.28947" stroke-linejoin="round"/>
<path d="M17.3787 283.725C14.8924 289.517 12.222 295.23 9.36733 300.847C7.64841 284.944 4.74117 269.431 0.794682 253.932C2.39959 248.486 3.89048 243.049 5.29368 237.547C10.2969 252.739 14.3662 268.02 17.3787 283.725Z" fill="url(#paint15_linear_7_2)" stroke="#1D1C1C" stroke-width="1.28947" stroke-linejoin="round"/>
<path d="M46.9653 263.512C42.4181 264.06 40.1466 264.332 35.6038 264.876C30.9425 249.455 25.378 234.482 18.9935 219.697C23.0583 219.179 25.093 218.921 29.1535 218.412C35.9151 233.162 41.8743 248.104 46.9653 263.512Z" fill="#1D1C1C" stroke="#1D1C1C" stroke-width="1.28947" stroke-linejoin="round"/>
<path d="M35.6027 264.876C33.5374 270.786 31.2835 276.622 28.8455 282.388C25.3989 266.682 20.9262 251.415 15.537 236.27C16.7955 230.759 18.0189 225.256 18.9924 219.692C25.377 234.477 30.9415 249.446 35.6027 264.871V264.876Z" fill="url(#paint16_linear_7_2)" stroke="#1D1C1C" stroke-width="1.28947" stroke-linejoin="round"/>
<path d="M62.453 152.71C64.0316 190.633 58.8792 227.476 46.9609 263.518C41.8743 248.11 35.9151 233.163 29.1534 218.418C34.7662 183.705 34.547 149.242 28.4957 114.599C40.2562 126.924 51.5739 139.6 62.453 152.715V152.71Z" fill="url(#paint17_linear_7_2)" stroke="#1D1C1C" stroke-width="1.28947" stroke-linejoin="round"/>
<path d="M226.443 131.085C167.706 138.846 108.97 146.593 50.2282 154.315C47.72 154.644 45.7117 153.648 44.4532 152.026C34.1617 139.026 23.4184 126.455 12.228 114.222C12.2104 114.209 12.206 114.2 12.1885 114.182C12.0306 114.011 11.9517 113.924 11.7982 113.753C11.7895 113.744 11.7851 113.74 11.7763 113.731C9.73729 111.315 9.23301 107.571 11.6184 105.014C31.3816 83.7008 50.0835 61.5805 67.4656 38.2808C69.4696 35.558 73.7405 35.0143 78.0641 36.926C111.092 51.6012 143.734 67.0657 176.003 83.35C176.384 83.543 176.744 83.7578 177.068 83.9902C194.696 95.0744 212.074 106.509 229.219 118.322C234.016 122.184 232.727 129.774 226.443 131.081V131.085Z" fill="url(#paint18_linear_7_2)" stroke="#1D1C1C" stroke-width="1.28947" stroke-linejoin="round"/>
<path d="M223.83 259.23C155.029 267.534 86.2157 275.703 17.3802 283.726C14.8939 289.518 12.2235 295.232 9.36884 300.853C78.7437 293.013 148.101 285.002 217.441 276.847C219.756 271.046 221.887 265.171 223.83 259.234V259.23Z" fill="url(#paint19_linear_7_2)" stroke="#1D1C1C" stroke-width="1.28947" stroke-linejoin="round"/>
<path d="M217.801 242.72C157.078 250.201 96.3461 257.593 35.6009 264.876C33.5356 270.782 31.2817 276.622 28.8437 282.388C90.0712 275.237 151.286 267.971 212.491 260.596C214.451 254.695 216.223 248.732 217.801 242.72Z" fill="url(#paint20_linear_7_2)" stroke="#1D1C1C" stroke-width="1.28947" stroke-linejoin="round"/>
<path d="M214.345 132.685C163.716 139.372 113.087 146.049 62.4577 152.705C64.0363 190.627 58.8839 227.471 46.9655 263.513C100.169 257.12 153.358 250.648 206.544 244.106C215.919 207.394 218.511 170.344 214.345 132.685Z" fill="url(#paint21_linear_7_2)" stroke="#1D1C1C" stroke-width="1.28947" stroke-linejoin="round"/>
<path d="M226.442 131.085C167.705 138.846 108.969 146.593 50.2273 154.315C47.7191 154.643 45.7108 153.648 44.4523 152.026C34.1607 139.026 23.4175 126.455 12.227 114.222C12.2095 114.209 12.2051 114.2 12.1876 114.182C12.0297 114.011 11.9508 113.924 11.7973 113.753C11.7885 113.744 11.7842 113.74 11.7754 113.731C9.73637 111.315 9.2321 107.57 11.6175 105.014C31.3807 83.7008 50.0826 61.5805 67.4647 38.2808C69.4686 35.5579 73.7396 35.0142 78.0632 36.9259C111.091 51.6012 143.733 67.0656 176.002 83.35C176.383 83.5429 176.743 83.7578 177.067 83.9901C194.695 95.0744 212.073 106.509 229.218 118.322C234.015 122.184 232.726 129.774 226.442 131.081V131.085Z" fill="url(#paint22_radial_7_2)" stroke="#1D1C1C" stroke-width="1.28947" stroke-linejoin="round"/>
<path d="M57.9494 262.193C68.5435 229.62 73.6564 196.407 73.3407 162.163C117.243 156.411 161.141 150.636 205.039 144.853C207.372 178.961 204.254 212.363 195.642 245.449C149.749 251.087 103.851 256.669 57.9494 262.193Z" fill="#1D1C1C" stroke="#1D1C1C" stroke-width="1.28947" stroke-linejoin="round"/>
<path d="M115.441 67.0531C93.5296 93.4308 70.0568 118.313 45.3342 142.069C41.1466 146.669 43.2338 154.793 50.2323 154.315C108.974 146.594 167.71 138.846 226.447 131.09C233.121 129.656 234.011 121.391 228.499 117.879C195.195 99.5385 161.44 82.0922 127.228 65.5185C122.734 63.3525 117.989 63.9663 115.446 67.0575L115.441 67.0531Z" fill="url(#paint23_linear_7_2)" stroke="#1D1C1C" stroke-width="1.28947" stroke-linejoin="round"/>
<path d="M115.441 67.0531C93.5296 93.4308 70.0568 118.313 45.3342 142.069C41.1466 146.669 43.2338 154.793 50.2323 154.315C108.974 146.594 167.71 138.846 226.447 131.09C233.121 129.656 234.011 121.391 228.499 117.879C195.195 99.5385 161.44 82.0922 127.228 65.5185C122.734 63.3525 117.989 63.9663 115.446 67.0575L115.441 67.0531Z" fill="url(#paint24_radial_7_2)" stroke="#1D1C1C" stroke-width="1.28947" stroke-linejoin="round"/>
<path d="M60.6026 142.033C82.9265 120.587 104.224 98.2304 124.312 74.672C154.533 89.6936 184.386 105.39 213.884 121.789C162.79 128.541 111.696 135.293 60.6026 142.033Z" stroke="#1D1C1C" stroke-width="1.28947" stroke-linejoin="round"/>
<path d="M229.645 118.69V118.751C229.298 118.435 228.917 118.142 228.5 117.878C222.089 114.349 215.657 110.846 209.215 107.382L175.297 82.999C175.534 83.1218 175.766 83.2358 176.003 83.3585C176.38 83.5514 176.74 83.7663 177.069 83.9943C194.701 95.0785 212.078 106.514 229.224 118.326C229.373 118.44 229.509 118.562 229.645 118.69Z" fill="#1D1C1C" stroke="#1D1C1C" stroke-width="1.28947" stroke-linejoin="round"/>
<path d="M104.155 171.397C104.129 174.046 101.967 176.47 99.3802 176.808C98.968 176.861 98.569 176.843 98.2007 176.76C97.1614 202.445 93.1579 227.358 86.0893 252.074C80.573 252.745 75.0567 253.42 69.5404 254.091C76.7888 229.419 80.9721 204.532 82.1955 178.847C81.8184 179.027 81.4281 179.141 81.0203 179.193C78.4288 179.531 76.4117 177.654 76.4731 175.006C76.5476 171.691 79.1611 168.657 82.384 168.232C87.6986 167.539 93.0132 166.842 98.3278 166.145C101.546 165.724 104.191 168.074 104.155 171.393V171.397ZM90.7506 254.029C89.9964 253.135 89.571 252.635 88.808 251.741C81.4807 252.635 74.149 253.525 66.8217 254.415C65.4404 255.568 64.6599 256.213 63.2655 257.362C62.7086 259.111 62.4192 259.984 61.836 261.724C71.0181 260.619 80.1959 259.51 89.3781 258.401C89.9437 256.656 90.22 255.779 90.755 254.025L90.7506 254.029ZM77.122 166.215C78.1569 167.14 78.7357 167.657 79.7618 168.578C86.8172 167.657 93.8727 166.732 100.928 165.811C101.945 164.619 102.515 163.952 103.52 162.76C103.485 160.945 103.463 160.037 103.397 158.226C94.6137 159.379 85.835 160.532 77.0519 161.681C77.0913 163.496 77.1045 164.404 77.1177 166.219L77.122 166.215ZM131.154 161.852C125.848 162.549 120.547 163.242 115.241 163.935C112.022 164.356 109.453 167.39 109.426 170.709C109.404 173.357 111.448 175.238 114.035 174.901C114.443 174.848 114.833 174.73 115.206 174.554C114.364 200.239 110.544 225.17 103.669 249.934C109.176 249.263 114.684 248.588 120.187 247.913C126.883 223.105 130.522 198.152 131.18 172.467C131.548 172.551 131.948 172.568 132.36 172.515C134.942 172.178 137.065 169.753 137.056 167.105C137.043 163.79 134.364 161.436 131.149 161.857L131.154 161.852ZM124.883 249.868C124.116 248.974 123.682 248.47 122.906 247.575C115.592 248.47 108.277 249.369 100.959 250.263C99.5951 251.421 98.8233 252.065 97.4464 253.218C96.9159 254.972 96.644 255.849 96.0827 257.598C105.247 256.489 114.408 255.376 123.572 254.266C124.112 252.512 124.375 251.635 124.883 249.877V249.868ZM109.952 161.914C111 162.839 111.588 163.356 112.627 164.277C119.67 163.356 126.712 162.431 133.754 161.51C134.754 160.318 135.311 159.651 136.302 158.458C136.24 156.643 136.201 155.74 136.113 153.925C127.348 155.078 118.582 156.227 109.821 157.38C109.887 159.195 109.917 160.103 109.957 161.914H109.952ZM163.918 157.551C158.626 158.244 153.329 158.941 148.036 159.634C144.826 160.054 142.3 163.089 142.322 166.403C142.34 169.052 144.41 170.933 146.992 170.595C147.4 170.542 147.79 170.424 148.159 170.249C147.694 195.929 144.247 220.904 137.74 245.751C143.234 245.076 148.733 244.401 154.228 243.721C160.555 218.83 163.818 193.838 164.103 168.157C164.471 168.24 164.87 168.258 165.282 168.205C167.856 167.868 169.948 165.443 169.895 162.795C169.834 159.48 167.119 157.13 163.914 157.551H163.918ZM158.955 245.694C158.174 244.795 157.731 244.291 156.942 243.392C149.641 244.291 142.34 245.19 135.039 246.085C133.693 247.242 132.93 247.895 131.57 249.049C131.066 250.807 130.807 251.688 130.272 253.442C139.42 252.328 148.567 251.215 157.714 250.096C158.227 248.338 158.472 247.457 158.959 245.69L158.955 245.694ZM142.721 157.617C143.783 158.542 144.379 159.059 145.431 159.98C152.46 159.059 159.49 158.134 166.514 157.213C167.497 156.021 168.045 155.354 169.018 154.162C168.93 152.351 168.878 151.443 168.764 149.632C160.016 150.785 151.268 151.934 142.52 153.083C142.616 154.894 142.656 155.801 142.721 157.617ZM196.622 153.258C191.338 153.951 186.054 154.648 180.77 155.341C177.564 155.762 175.087 158.796 175.157 162.111C175.214 164.759 177.31 166.64 179.889 166.302C180.292 166.25 180.682 166.131 181.051 165.956C180.963 191.628 177.885 216.642 171.754 241.573C177.24 240.898 182.726 240.218 188.211 239.538C194.166 214.568 197.06 189.536 196.968 163.869C197.336 163.952 197.74 163.97 198.148 163.917C200.717 163.58 202.774 161.155 202.682 158.507C202.572 155.192 199.823 152.842 196.622 153.263V153.258ZM192.96 241.507C192.162 240.604 191.715 240.1 190.912 239.196C183.625 240.1 176.337 240.998 169.049 241.897C167.72 243.059 166.97 243.712 165.624 244.874C165.146 246.641 164.901 247.523 164.392 249.281C173.522 248.163 182.651 247.045 191.781 245.922C192.267 244.16 192.5 243.274 192.96 241.503V241.507ZM175.425 153.32C176.499 154.24 177.1 154.758 178.17 155.683C185.186 154.762 192.197 153.841 199.213 152.916C200.178 151.724 200.717 151.057 201.669 149.865C201.555 148.054 201.489 147.146 201.349 145.335C192.618 146.484 183.888 147.637 175.157 148.786C175.28 150.597 175.333 151.504 175.425 153.315V153.32Z" fill="url(#paint25_linear_7_2)" stroke="#1D1C1C" stroke-width="1.28947" stroke-linejoin="round"/>
<path d="M98.3282 166.153C101.551 165.732 104.191 168.078 104.156 171.397C104.129 174.05 101.968 176.475 99.3806 176.812C97.3108 177.08 95.684 175.58 95.7235 173.458C95.7542 171.761 97.1004 170.209 98.7535 169.994C100.073 169.823 101.143 170.784 101.126 172.143C101.113 173.23 100.236 174.221 99.1745 174.361C98.3282 174.471 97.6573 173.857 97.6704 172.989" stroke="#1D1C1C" stroke-width="1.28947" stroke-linejoin="round"/>
<path d="M82.3837 168.236C79.1608 168.657 76.5473 171.687 76.4684 175.006C76.407 177.659 78.4197 179.535 81.0112 179.198C83.0853 178.93 84.8306 176.988 84.8744 174.866C84.9139 173.169 83.5852 171.967 81.9321 172.182C80.6078 172.353 79.5203 173.594 79.4896 174.953C79.4633 176.041 80.2965 176.808 81.3576 176.672C82.2039 176.563 82.9143 175.769 82.9319 174.896" stroke="#1D1C1C" stroke-width="1.28947" stroke-linejoin="round"/>
<path d="M131.153 161.853C134.367 161.432 137.047 163.778 137.06 167.093C137.073 169.745 134.946 172.17 132.363 172.508C130.298 172.779 128.649 171.275 128.658 169.153C128.663 167.457 129.987 165.904 131.636 165.69C132.955 165.519 134.034 166.479 134.039 167.838C134.039 168.925 133.179 169.916 132.122 170.057C131.276 170.166 130.596 169.552 130.596 168.684" stroke="#1D1C1C" stroke-width="1.28947" stroke-linejoin="round"/>
<path d="M115.245 163.94C112.027 164.361 109.457 167.391 109.431 170.71C109.409 173.362 111.448 175.239 114.035 174.901C116.105 174.63 117.819 172.692 117.837 170.569C117.85 168.873 116.508 167.671 114.855 167.886C113.535 168.057 112.465 169.298 112.457 170.657C112.448 171.744 113.294 172.512 114.351 172.376C115.197 172.266 115.894 171.473 115.899 170.6" stroke="#1D1C1C" stroke-width="1.28947" stroke-linejoin="round"/>
<path d="M163.919 157.555C167.129 157.134 169.839 159.48 169.9 162.795C169.948 165.447 167.861 167.872 165.283 168.21C163.217 168.482 161.551 166.978 161.525 164.856C161.503 163.159 162.805 161.607 164.454 161.392C165.77 161.221 166.866 162.181 166.888 163.54C166.905 164.628 166.059 165.618 165.002 165.759C164.156 165.868 163.467 165.255 163.459 164.386" stroke="#1D1C1C" stroke-width="1.28947" stroke-linejoin="round"/>
<path d="M148.041 159.638C144.832 160.058 142.306 163.088 142.328 166.403C142.345 169.056 144.415 170.932 146.993 170.595C149.059 170.323 150.747 168.385 150.729 166.263C150.716 164.566 149.357 163.364 147.708 163.579C146.388 163.75 145.34 164.991 145.349 166.35C145.358 167.438 146.213 168.205 147.27 168.069C148.116 167.959 148.8 167.166 148.791 166.293" stroke="#1D1C1C" stroke-width="1.28947" stroke-linejoin="round"/>
<path d="M196.622 153.259C199.823 152.838 202.572 155.184 202.682 158.498C202.77 161.151 200.718 163.576 198.144 163.913C196.083 164.185 194.394 162.681 194.337 160.559C194.294 158.862 195.57 157.31 197.214 157.095C198.529 156.924 199.639 157.885 199.678 159.239C199.713 160.327 198.88 161.318 197.828 161.458C196.986 161.568 196.289 160.954 196.262 160.086" stroke="#1D1C1C" stroke-width="1.28947" stroke-linejoin="round"/>
<path d="M180.774 155.341C177.569 155.762 175.087 158.792 175.157 162.107C175.214 164.759 177.31 166.636 179.884 166.298C181.945 166.026 183.602 164.088 183.559 161.966C183.524 160.27 182.142 159.068 180.498 159.283C179.182 159.454 178.152 160.695 178.178 162.054C178.2 163.141 179.068 163.909 180.121 163.773C180.963 163.663 181.638 162.87 181.616 161.997" stroke="#1D1C1C" stroke-width="1.28947" stroke-linejoin="round"/>
<path d="M287.811 220.018C240.479 230.716 239.195 182.626 268.929 195.056C267.162 180.539 275.66 175.549 283.303 178.421C283.895 192.434 285.395 206.272 287.807 220.018H287.811Z" fill="url(#paint26_linear_7_2)" stroke="#1D1C1C" stroke-width="1.28947" stroke-linejoin="round"/>
<defs>
<linearGradient id="paint0_linear_7_2" x1="223.17" y1="237.49" x2="267.239" y2="237.49" gradientUnits="userSpaceOnUse">
<stop stop-color="#AF47F9"/>
<stop offset="1" stop-color="#7AF7F7"/>
</linearGradient>
<linearGradient id="paint1_linear_7_2" x1="229.199" y1="221.521" x2="275.065" y2="221.521" gradientUnits="userSpaceOnUse">
<stop stop-color="#AF47F9"/>
<stop offset="1" stop-color="#7AF7F7"/>
</linearGradient>
<linearGradient id="paint2_linear_7_2" x1="418.155" y1="260" x2="441.702" y2="260" gradientUnits="userSpaceOnUse">
<stop stop-color="#AF47F9"/>
<stop offset="1" stop-color="#7AF7F7"/>
</linearGradient>
<linearGradient id="paint3_linear_7_2" x1="400.038" y1="241.647" x2="428.01" y2="241.647" gradientUnits="userSpaceOnUse">
<stop stop-color="#AF47F9"/>
<stop offset="1" stop-color="#7AF7F7"/>
</linearGradient>
<linearGradient id="paint4_linear_7_2" x1="384.585" y1="170.055" x2="275.29" y2="60.7508" gradientUnits="userSpaceOnUse">
<stop stop-color="#AF47F9"/>
<stop offset="1" stop-color="#7AF7F7"/>
</linearGradient>
<linearGradient id="paint5_linear_7_2" x1="393.889" y1="344.584" x2="265.859" y2="216.543" gradientUnits="userSpaceOnUse">
<stop stop-color="#AF47F9"/>
<stop offset="1" stop-color="#7AF7F7"/>
</linearGradient>
<linearGradient id="paint6_linear_7_2" x1="380.382" y1="320.162" x2="266.076" y2="205.846" gradientUnits="userSpaceOnUse">
<stop stop-color="#AF47F9"/>
<stop offset="1" stop-color="#7AF7F7"/>
</linearGradient>
<linearGradient id="paint7_linear_7_2" x1="388.824" y1="274.725" x2="239.726" y2="125.618" gradientUnits="userSpaceOnUse">
<stop stop-color="#AF47F9"/>
<stop offset="1" stop-color="#7AF7F7"/>
</linearGradient>
<linearGradient id="paint8_linear_7_2" x1="365.299" y1="189.159" x2="256.127" y2="79.9777" gradientUnits="userSpaceOnUse">
<stop stop-color="#AF47F9"/>
<stop offset="1" stop-color="#7AF7F7"/>
</linearGradient>
<radialGradient id="paint9_radial_7_2" cx="0" cy="0" r="1" gradientUnits="userSpaceOnUse" gradientTransform="translate(229.755 94.2987) scale(41.2715 41.2678)">
<stop offset="0.4" stop-color="#FFF48D"/>
<stop offset="0.91" stop-color="#FFF48D" stop-opacity="0"/>
</radialGradient>
<linearGradient id="paint10_linear_7_2" x1="377.839" y1="269.055" x2="249.893" y2="141.097" gradientUnits="userSpaceOnUse">
<stop stop-color="#AF47F9"/>
<stop offset="1" stop-color="#7AF7F7"/>
</linearGradient>
<radialGradient id="paint11_radial_7_2" cx="0" cy="0" r="1" gradientUnits="userSpaceOnUse" gradientTransform="translate(258.016 212.84) scale(58.7194 58.7141)">
<stop offset="0.6" stop-color="#FFF48D"/>
<stop offset="0.91" stop-color="#FFF48D" stop-opacity="0"/>
</radialGradient>
<radialGradient id="paint12_radial_7_2" cx="0" cy="0" r="1" gradientUnits="userSpaceOnUse" gradientTransform="translate(259.784 197.39) scale(33.1023 33.0993)">
<stop offset="0.6" stop-color="#FFF48D"/>
<stop offset="0.91" stop-color="#FFF48D" stop-opacity="0"/>
</radialGradient>
<linearGradient id="paint13_linear_7_2" x1="206.146" y1="73.3309" x2="252.272" y2="73.3309" gradientUnits="userSpaceOnUse">
<stop stop-color="#FD74FD"/>
<stop offset="1" stop-color="#FD5352"/>
</linearGradient>
<linearGradient id="paint14_linear_7_2" x1="179.701" y1="13.3171" x2="213.939" y2="20.0278" gradientUnits="userSpaceOnUse">
<stop stop-color="#FD74FD"/>
<stop offset="1" stop-color="#FD5352"/>
</linearGradient>
<linearGradient id="paint15_linear_7_2" x1="-7.4754" y1="284.006" x2="22.1381" y2="254.385" gradientUnits="userSpaceOnUse">
<stop stop-color="#83F582"/>
<stop offset="1" stop-color="#7AF7F7"/>
</linearGradient>
<linearGradient id="paint16_linear_7_2" x1="10.7048" y1="264.257" x2="37.1263" y2="237.833" gradientUnits="userSpaceOnUse">
<stop stop-color="#83F582"/>
<stop offset="1" stop-color="#7AF7F7"/>
</linearGradient>
<linearGradient id="paint17_linear_7_2" x1="5.11495" y1="221.671" x2="70.3445" y2="156.436" gradientUnits="userSpaceOnUse">
<stop stop-color="#83F582"/>
<stop offset="1" stop-color="#7AF7F7"/>
</linearGradient>
<linearGradient id="paint18_linear_7_2" x1="62.4141" y1="170.055" x2="171.709" y2="60.7508" gradientUnits="userSpaceOnUse">
<stop stop-color="#83F582"/>
<stop offset="1" stop-color="#7AF7F7"/>
</linearGradient>
<linearGradient id="paint19_linear_7_2" x1="53.1091" y1="344.585" x2="181.139" y2="216.543" gradientUnits="userSpaceOnUse">
<stop stop-color="#83F582"/>
<stop offset="1" stop-color="#7AF7F7"/>
</linearGradient>
<linearGradient id="paint20_linear_7_2" x1="66.6203" y1="320.161" x2="180.922" y2="205.844" gradientUnits="userSpaceOnUse">
<stop stop-color="#83F582"/>
<stop offset="1" stop-color="#7AF7F7"/>
</linearGradient>
<linearGradient id="paint21_linear_7_2" x1="58.1779" y1="274.724" x2="207.272" y2="125.617" gradientUnits="userSpaceOnUse">
<stop stop-color="#83F582"/>
<stop offset="1" stop-color="#7AF7F7"/>
</linearGradient>
<radialGradient id="paint22_radial_7_2" cx="0" cy="0" r="1" gradientUnits="userSpaceOnUse" gradientTransform="translate(190.985 75.6463) scale(50.5106 50.5061)">
<stop offset="0.4" stop-color="#FFF48D"/>
<stop offset="0.91" stop-color="#FFF48D" stop-opacity="0"/>
</radialGradient>
<linearGradient id="paint23_linear_7_2" x1="81.6989" y1="189.16" x2="190.871" y2="79.9779" gradientUnits="userSpaceOnUse">
<stop stop-color="#83F582"/>
<stop offset="1" stop-color="#7AF7F7"/>
</linearGradient>
<radialGradient id="paint24_radial_7_2" cx="0" cy="0" r="1" gradientUnits="userSpaceOnUse" gradientTransform="translate(201.641 82.9121) scale(45.4986 45.4945)">
<stop offset="0.6" stop-color="#FFF48D"/>
<stop offset="0.91" stop-color="#FFF48D" stop-opacity="0"/>
</radialGradient>
<linearGradient id="paint25_linear_7_2" x1="69.1589" y1="269.055" x2="197.106" y2="141.097" gradientUnits="userSpaceOnUse">
<stop stop-color="#83F582"/>
<stop offset="1" stop-color="#7AF7F7"/>
</linearGradient>
<linearGradient id="paint26_linear_7_2" x1="248.973" y1="199.612" x2="287.811" y2="199.612" gradientUnits="userSpaceOnUse">
<stop stop-color="#FD74FD"/>
<stop offset="1" stop-color="#FD5352"/>
</linearGradient>
</defs>
</svg>
