<svg width="241" height="54" viewBox="0 0 241 54" fill="none" xmlns="http://www.w3.org/2000/svg" role="img" aria-label="Wero &amp; Ideal Logo"><g clip-path="url(#clip0_818_2310)"><g clip-path="url(#clip1_818_2310)"><path d="M0 3.99879V49.9437C0 52.1431 1.8048 53.9425 4.01072 53.9425H31.5437C52.3588 53.9425 61.3828 42.3264 61.3828 26.9112C61.3828 11.4961 52.3586 0 31.5435 0H4.01072C1.8048 0 0 1.79943 0 3.99879Z" fill="white"></path><path d="M31.5396 50.2845H7.5962C5.47045 50.2845 3.74609 48.565 3.74609 46.4459V7.51835C3.74609 5.39892 5.47072 3.67969 7.5962 3.67969H31.5396C54.2597 3.67969 57.6487 18.2549 57.6487 26.9321C57.6487 41.9871 48.3642 50.2845 31.5396 50.2845ZM5.02938 7.51835V46.4456C5.02938 47.865 6.17229 49.0048 7.5962 49.0048H31.5396C47.542 49.0048 56.3654 41.1674 56.3654 26.9321C56.3654 7.81843 40.8041 4.95915 31.5396 4.95915H7.5962C6.17256 4.95915 5.02938 6.09867 5.02938 7.51835Z" fill="black"></path><path d="M18.4258 11.276V45.2248H33.245C46.7006 45.2248 52.5361 37.6474 52.5361 26.9307C52.5361 16.2141 46.7006 8.7168 33.245 8.7168H20.9926C19.569 8.7168 18.4258 9.87649 18.4258 11.276Z" fill="#CC0066"></path><path d="M23.6408 22.3519C24.1621 22.3519 24.6434 22.4319 25.1047 22.5917C25.566 22.7516 25.9469 23.0116 26.2878 23.3316C26.6088 23.6715 26.8693 24.0914 27.0698 24.5712C27.2504 25.071 27.3506 25.651 27.3506 26.3306C27.3506 26.9305 27.2704 27.4701 27.13 27.9701C26.9697 28.4699 26.7492 28.9099 26.4482 29.2698C26.1472 29.6296 25.7663 29.9095 25.3053 30.1294C24.8439 30.3293 24.3027 30.4494 23.6811 30.4494H20.1719V22.332H23.6411V22.3519H23.6408ZM23.5204 28.97C23.7812 28.97 24.0217 28.9299 24.2825 28.8499C24.523 28.77 24.7438 28.63 24.9241 28.4301C25.1044 28.2301 25.265 27.9903 25.3854 27.6703C25.5058 27.3503 25.566 26.9905 25.566 26.5308C25.566 26.1309 25.5258 25.7511 25.4456 25.4311C25.3655 25.1111 25.2251 24.8113 25.0445 24.5914C24.8639 24.3715 24.6234 24.1716 24.3227 24.0515C24.022 23.9315 23.6608 23.8715 23.2197 23.8715H21.9365V28.9899H23.5207V28.97H23.5204ZM34.5897 22.3519V23.8516H30.2983V25.591H34.2488V26.9706H30.2983V28.95H34.6899V30.4496H28.5135V22.3323H34.5895V22.3522L34.5897 22.3519ZM43.7741 30.4693H41.9091L41.2874 28.6699H38.2393L37.5977 30.4693H35.7929L38.861 22.3519H40.726L43.7741 30.4693ZM40.8264 27.3304L39.8036 24.3513H39.7836L38.7209 27.3304H40.8264ZM46.6818 22.3519V28.9697H50.6523V30.4693H44.897V22.3519H46.6818Z" fill="white"></path><path d="M14.5617 45.2245C11.4134 45.2245 8.88651 42.6852 8.88651 39.5662V35.1476C8.88651 33.5882 10.1498 32.3085 11.7341 32.3085C13.3183 32.3085 14.5816 33.568 14.5816 35.1476V45.2242H14.5617V45.2245ZM11.7343 30.1495C9.66079 30.1495 7.98438 28.4781 7.98438 26.4107C7.98438 24.3433 9.66079 22.6719 11.7343 22.6719C13.8079 22.6719 15.4843 24.3433 15.4843 26.4107C15.4843 28.4781 13.8079 30.1495 11.7343 30.1495Z" fill="black"></path></g><path fill-rule="evenodd" clip-rule="evenodd" d="M78.6328 53.9423V0H79.1953V53.9423H78.6328Z" fill="#1D1C1C"></path><path d="M206.514 26.986C206.514 18.3029 212.767 10.3848 223.565 10.3848C234.408 10.3848 240.661 18.3029 240.661 26.986C240.661 35.6691 234.408 43.5872 223.565 43.5872C212.769 43.5891 206.514 35.6691 206.514 26.986ZM231.17 26.986C231.17 22.801 228.38 18.9329 223.567 18.9329C218.797 18.9329 215.964 22.8029 215.964 26.986C215.964 31.171 218.799 35.0391 223.567 35.0391C228.38 35.0391 231.17 31.171 231.17 26.986Z" fill="#1D1C1C"></path><path d="M199.874 33.1515C203.474 31.1265 205.632 27.2583 205.632 22.9833C205.632 16.6402 200.997 11.2402 193.799 11.2402H178.683V42.7346H188.041V34.6815H189.796L195.149 42.7346H206.172L199.874 33.1515ZM191.911 27.4365H188.041V18.5284H191.956C194.476 18.5284 196.096 20.5533 196.096 22.9833C196.096 25.4115 194.431 27.4365 191.911 27.4365Z" fill="#1D1C1C"></path><path d="M135.963 11.207L130.349 29.9776L124.87 11.207H117.417L111.893 29.9776L106.325 11.207H96.4453L107.761 42.6414H115.889L121.143 25.532L126.353 42.6414H134.527L145.842 11.207H135.963Z" fill="#1D1C1C"></path><path d="M160.003 34.9629C159.995 34.9629 159.988 34.9629 159.98 34.9629C156.48 34.9629 154.025 32.8742 152.972 30.1086H176.636H176.754C176.945 29.0679 177.045 28.0029 177.045 26.9248C177.045 18.2642 170.81 10.3667 160.003 10.3555V18.8886C163.524 18.8979 165.954 20.9829 166.997 23.7429H143.248C143.058 24.7836 142.961 25.8486 142.961 26.9267C142.961 35.5929 149.203 43.4979 159.98 43.4979C159.988 43.4979 159.995 43.4979 160.003 43.4979V34.9629Z" fill="#1D1C1C"></path><path d="M159.981 43.4943C160.346 43.4943 160.706 43.483 161.062 43.4662C163.253 43.3555 165.24 42.9149 167.012 42.2043C168.784 41.4937 170.34 40.5168 171.664 39.3355C172.988 38.1543 174.081 36.7705 174.928 35.2462C175.699 33.8605 176.261 32.3605 176.614 30.7949H166.704C166.502 31.213 166.266 31.6124 165.996 31.9855C165.626 32.4955 165.193 32.9587 164.702 33.358C164.211 33.7574 163.659 34.0949 163.052 34.3555C162.444 34.6162 161.783 34.7999 161.066 34.8918C160.718 34.9368 160.358 34.963 159.984 34.963C157.755 34.963 155.949 34.1137 154.661 32.7843L148.219 39.2268C151.082 41.8443 155.057 43.4943 159.981 43.4943Z" fill="url(#paint0_linear_818_2310)"></path><path d="M159.979 10.3535C150.839 10.3535 144.961 16.0385 143.386 23.0547H153.267C154.448 20.6379 156.775 18.8866 159.979 18.8866C162.533 18.8866 164.515 19.9779 165.811 21.6279L172.311 15.1273C169.409 12.2173 165.233 10.3535 159.979 10.3535Z" fill="url(#paint1_linear_818_2310)"></path></g><defs><linearGradient id="paint0_linear_818_2310" x1="171.626" y1="24.9655" x2="157.045" y2="43.0291" gradientUnits="userSpaceOnUse"><stop offset="0.0243" stop-color="#1D1C1C" stop-opacity="0"></stop><stop offset="0.676" stop-color="#1D1C1C"></stop></linearGradient><linearGradient id="paint1_linear_818_2310" x1="146.112" y1="29.0129" x2="161.095" y2="14.0295" gradientUnits="userSpaceOnUse"><stop offset="0.0243" stop-color="#1D1C1C" stop-opacity="0"></stop><stop offset="0.676" stop-color="#1D1C1C"></stop></linearGradient><clipPath id="clip0_818_2310"><rect width="240.661" height="53.9423" fill="white"></rect></clipPath><clipPath id="clip1_818_2310"><rect width="61.3826" height="53.9423" fill="white"></rect></clipPath></defs></svg>